<mxfile host="app.diagrams.net" modified="2020-07-29T07:44:21.824Z" agent="5.0 (Macintosh; Intel Mac OS X 10_15_4) AppleWebKit/537.36 (KHTML, like Gecko) Chrome/84.0.4147.89 Safari/537.36" etag="6Zog62jFwgTx4raddOlI" version="13.5.4" type="github">
  <diagram id="C5RBs43oDa-KdzZeNtuy" name="Page-1">
    <mxGraphModel dx="946" dy="565" grid="1" gridSize="10" guides="1" tooltips="1" connect="1" arrows="1" fold="1" page="1" pageScale="1" pageWidth="827" pageHeight="1169" math="0" shadow="0">
      <root>
        <mxCell id="WIyWlLk6GJQsqaUBKTNV-0" />
        <mxCell id="WIyWlLk6GJQsqaUBKTNV-1" parent="WIyWlLk6GJQsqaUBKTNV-0" />
        <mxCell id="cyJonkY0qCmyP2J31kSq-8" style="edgeStyle=orthogonalEdgeStyle;rounded=0;orthogonalLoop=1;jettySize=auto;html=1;exitX=0.5;exitY=1;exitDx=0;exitDy=0;entryX=0.5;entryY=0;entryDx=0;entryDy=0;shadow=0;labelBackgroundColor=none;endArrow=block;endFill=0;endSize=8;strokeWidth=1;" edge="1" parent="WIyWlLk6GJQsqaUBKTNV-1" source="cyJonkY0qCmyP2J31kSq-0" target="cyJonkY0qCmyP2J31kSq-1">
          <mxGeometry relative="1" as="geometry" />
        </mxCell>
        <mxCell id="cyJonkY0qCmyP2J31kSq-0" value="&lt;font style=&quot;font-size: 12px&quot;&gt;安装&lt;span lang=&quot;EN-US&quot;&gt;Elasticgeo插件&amp;nbsp;&lt;/span&gt;&lt;/font&gt;&lt;span style=&quot;font-size: medium&quot;&gt;&lt;/span&gt;" style="rounded=1;whiteSpace=wrap;html=1;fontSize=12;glass=0;strokeWidth=1;shadow=0;" vertex="1" parent="WIyWlLk6GJQsqaUBKTNV-1">
          <mxGeometry x="580" y="60" width="120" height="40" as="geometry" />
        </mxCell>
        <mxCell id="cyJonkY0qCmyP2J31kSq-9" style="edgeStyle=orthogonalEdgeStyle;rounded=0;orthogonalLoop=1;jettySize=auto;html=1;exitX=0.5;exitY=1;exitDx=0;exitDy=0;entryX=0.5;entryY=0;entryDx=0;entryDy=0;shadow=0;labelBackgroundColor=none;endArrow=block;endFill=0;endSize=8;strokeWidth=1;" edge="1" parent="WIyWlLk6GJQsqaUBKTNV-1" source="cyJonkY0qCmyP2J31kSq-1" target="cyJonkY0qCmyP2J31kSq-2">
          <mxGeometry relative="1" as="geometry" />
        </mxCell>
        <mxCell id="cyJonkY0qCmyP2J31kSq-1" value="创建elasticsearch数据存储" style="rounded=1;whiteSpace=wrap;html=1;fontSize=12;glass=0;strokeWidth=1;shadow=0;" vertex="1" parent="WIyWlLk6GJQsqaUBKTNV-1">
          <mxGeometry x="580" y="130" width="120" height="40" as="geometry" />
        </mxCell>
        <mxCell id="cyJonkY0qCmyP2J31kSq-10" style="edgeStyle=orthogonalEdgeStyle;rounded=0;orthogonalLoop=1;jettySize=auto;html=1;exitX=0.5;exitY=1;exitDx=0;exitDy=0;entryX=0.5;entryY=0;entryDx=0;entryDy=0;shadow=0;labelBackgroundColor=none;endArrow=block;endFill=0;endSize=8;strokeWidth=1;" edge="1" parent="WIyWlLk6GJQsqaUBKTNV-1" source="cyJonkY0qCmyP2J31kSq-2" target="cyJonkY0qCmyP2J31kSq-3">
          <mxGeometry relative="1" as="geometry" />
        </mxCell>
        <mxCell id="cyJonkY0qCmyP2J31kSq-11" style="edgeStyle=orthogonalEdgeStyle;rounded=0;orthogonalLoop=1;jettySize=auto;html=1;exitX=0.5;exitY=1;exitDx=0;exitDy=0;entryX=0.5;entryY=0;entryDx=0;entryDy=0;shadow=0;labelBackgroundColor=none;endArrow=block;endFill=0;endSize=8;strokeWidth=1;" edge="1" parent="WIyWlLk6GJQsqaUBKTNV-1" source="cyJonkY0qCmyP2J31kSq-2" target="cyJonkY0qCmyP2J31kSq-4">
          <mxGeometry relative="1" as="geometry" />
        </mxCell>
        <mxCell id="cyJonkY0qCmyP2J31kSq-12" style="edgeStyle=orthogonalEdgeStyle;rounded=0;orthogonalLoop=1;jettySize=auto;html=1;exitX=0.5;exitY=1;exitDx=0;exitDy=0;entryX=0.5;entryY=0;entryDx=0;entryDy=0;shadow=0;labelBackgroundColor=none;endArrow=block;endFill=0;endSize=8;strokeWidth=1;" edge="1" parent="WIyWlLk6GJQsqaUBKTNV-1" source="cyJonkY0qCmyP2J31kSq-2" target="cyJonkY0qCmyP2J31kSq-5">
          <mxGeometry relative="1" as="geometry" />
        </mxCell>
        <mxCell id="cyJonkY0qCmyP2J31kSq-13" style="edgeStyle=orthogonalEdgeStyle;rounded=0;orthogonalLoop=1;jettySize=auto;html=1;exitX=0.5;exitY=1;exitDx=0;exitDy=0;entryX=0.5;entryY=0;entryDx=0;entryDy=0;shadow=0;labelBackgroundColor=none;endArrow=block;endFill=0;endSize=8;strokeWidth=1;" edge="1" parent="WIyWlLk6GJQsqaUBKTNV-1" source="cyJonkY0qCmyP2J31kSq-2" target="cyJonkY0qCmyP2J31kSq-6">
          <mxGeometry relative="1" as="geometry" />
        </mxCell>
        <mxCell id="cyJonkY0qCmyP2J31kSq-2" value="选择索引的mapping&lt;br&gt;发布图层" style="rounded=1;whiteSpace=wrap;html=1;fontSize=12;glass=0;strokeWidth=1;shadow=0;" vertex="1" parent="WIyWlLk6GJQsqaUBKTNV-1">
          <mxGeometry x="580" y="200" width="120" height="40" as="geometry" />
        </mxCell>
        <mxCell id="cyJonkY0qCmyP2J31kSq-3" value="WFS" style="rounded=1;whiteSpace=wrap;html=1;fontSize=12;glass=0;strokeWidth=1;shadow=0;" vertex="1" parent="WIyWlLk6GJQsqaUBKTNV-1">
          <mxGeometry x="495" y="290" width="60" height="40" as="geometry" />
        </mxCell>
        <mxCell id="cyJonkY0qCmyP2J31kSq-4" value="WMS" style="rounded=1;whiteSpace=wrap;html=1;fontSize=12;glass=0;strokeWidth=1;shadow=0;" vertex="1" parent="WIyWlLk6GJQsqaUBKTNV-1">
          <mxGeometry x="575" y="290" width="60" height="40" as="geometry" />
        </mxCell>
        <mxCell id="cyJonkY0qCmyP2J31kSq-5" value="WMTS" style="rounded=1;whiteSpace=wrap;html=1;fontSize=12;glass=0;strokeWidth=1;shadow=0;" vertex="1" parent="WIyWlLk6GJQsqaUBKTNV-1">
          <mxGeometry x="655" y="290" width="60" height="40" as="geometry" />
        </mxCell>
        <mxCell id="cyJonkY0qCmyP2J31kSq-6" value="矢量瓦片" style="rounded=1;whiteSpace=wrap;html=1;fontSize=12;glass=0;strokeWidth=1;shadow=0;" vertex="1" parent="WIyWlLk6GJQsqaUBKTNV-1">
          <mxGeometry x="725" y="290" width="60" height="40" as="geometry" />
        </mxCell>
      </root>
    </mxGraphModel>
  </diagram>
</mxfile>
